REM MD5 e031ced506ed1d13ded3f998646ae90a
FILE "Silent Iron (Europe).bin" BINARY
  TRACK 01 MODE2/2352
    INDEX 01 00:00:00
  TRACK 02 AUDIO
    INDEX 00 09:59:02
    INDEX 01 10:01:02
  TRACK 03 AUDIO
    INDEX 00 12:51:54
    INDEX 01 12:53:54
REM LEADOUT 20:41:27
